<svg width="27" height="27" viewBox="0 0 27 27" fill="none" xmlns="http://www.w3.org/2000/svg">
<rect x="1" y="1" width="24.42" height="24.42" rx="4" stroke="#4E4D4D" stroke-width="2"/>
<g opacity="0.7">
<path d="M15.75 21.75H12.75V12.75H15.75V14.25C16.0658 13.8482 16.4666 13.5213 16.9237 13.2927C17.3808 13.0641 17.8828 12.9394 18.3937 12.9278C19.2873 12.9327 20.1424 13.2918 20.7716 13.9263C21.4007 14.5608 21.7526 15.4189 21.75 16.3125V21.75H18.75V16.6875C18.692 16.2822 18.4895 15.9115 18.1798 15.6436C17.8702 15.3757 17.4742 15.2286 17.0648 15.2295C16.8815 15.2353 16.7013 15.278 16.535 15.3552C16.3686 15.4323 16.2196 15.5423 16.0968 15.6785C15.974 15.8146 15.88 15.9742 15.8204 16.1476C15.7608 16.321 15.7369 16.5046 15.75 16.6875V21.75ZM11.25 21.75H8.25V12.75H11.25V21.75ZM9.75 11.25C9.35218 11.25 8.97064 11.092 8.68934 10.8107C8.40804 10.5294 8.25 10.1478 8.25 9.75C8.25 9.35218 8.40804 8.97064 8.68934 8.68934C8.97064 8.40804 9.35218 8.25 9.75 8.25C10.1478 8.25 10.5294 8.40804 10.8107 8.68934C11.092 8.97064 11.25 9.35218 11.25 9.75C11.25 10.1478 11.092 10.5294 10.8107 10.8107C10.5294 11.092 10.1478 11.25 9.75 11.25Z" fill="black"/>
</g>
</svg>
