<svg width="31" height="31" viewBox="0 0 31 31" fill="none" xmlns="http://www.w3.org/2000/svg">
<path d="M1.79581 29.1986L1.80108 29.2039C1.94076 29.3446 2.10688 29.4563 2.28988 29.5326C2.47288 29.6089 2.66916 29.6483 2.86743 29.6484C3.03426 29.6483 3.19994 29.6208 3.35786 29.567L11.9559 26.6503L28.4549 10.1513C29.4635 9.1426 30.0301 7.77452 30.0301 6.34804C30.03 4.92156 29.4633 3.55353 28.4546 2.5449C27.4459 1.53627 26.0778 0.969664 24.6513 0.969727C23.2248 0.969789 21.8568 1.53652 20.8482 2.54523L4.34913 19.0443L1.43271 27.642C1.34084 27.9094 1.32618 28.1972 1.3904 28.4725C1.45462 28.7479 1.59513 28.9995 1.79581 29.1986ZM22.2183 3.91523C22.8644 3.27399 23.7384 2.91494 24.6487 2.91668C25.559 2.91843 26.4316 3.28084 27.0753 3.92455C27.719 4.56827 28.0814 5.44082 28.0831 6.35116C28.0848 7.26149 27.7257 8.13541 27.0845 8.78156L24.9148 10.9512L20.0485 6.08486L22.2183 3.91523ZM6.039 20.0944L18.6785 7.45486L23.5449 12.3212L10.9053 24.9607L3.54071 27.459L6.039 20.0944Z" fill="white"/>
</svg>
