<svg width="29" height="29" viewBox="0 0 29 29" fill="none" xmlns="http://www.w3.org/2000/svg">
<path d="M22.3382 28.5488C22.0672 28.548 21.7972 28.5183 21.5326 28.4602C16.4952 27.4181 11.8543 24.9748 8.14428 21.4116C4.51338 17.8404 1.99515 13.2936 0.894286 8.32126C0.76448 7.70155 0.79634 7.05887 0.9868 6.45504C1.17726 5.85121 1.51991 5.30656 1.98178 4.87348L5.20401 1.77209C5.36859 1.61645 5.56414 1.49726 5.7779 1.4223C5.99166 1.34735 6.21882 1.31831 6.44456 1.33709C6.67863 1.36151 6.9045 1.43691 7.1063 1.55799C7.3081 1.67907 7.48092 1.84289 7.61262 2.03792L11.6404 7.99098C11.7914 8.22197 11.8643 8.49534 11.8484 8.77086C11.8324 9.04639 11.7285 9.30952 11.5518 9.52153L9.52984 11.9382C10.3351 13.7205 11.4755 15.3313 12.889 16.6829C14.2933 18.0836 15.9532 19.2021 17.7787 19.9777L20.284 17.9879C20.4944 17.8216 20.7504 17.7233 21.0181 17.7061C21.2857 17.6888 21.5523 17.7534 21.7823 17.8913L27.8643 21.8224C28.073 21.947 28.2508 22.1172 28.3844 22.3203C28.518 22.5234 28.6038 22.7541 28.6356 22.9951C28.6674 23.2361 28.6442 23.4812 28.5678 23.7119C28.4914 23.9427 28.3638 24.1532 28.1945 24.3277L25.0529 27.4371C24.696 27.7922 24.2724 28.0733 23.8065 28.264C23.3406 28.4548 22.8416 28.5516 22.3382 28.5488ZM6.31567 2.93209L3.09345 6.03348C2.83362 6.27559 2.64128 6.58116 2.53535 6.92014C2.42942 7.25912 2.41354 7.61984 2.48928 7.96681C3.51292 12.6327 5.86595 16.9023 9.26401 20.2596C12.7554 23.612 17.1227 25.9101 21.8629 26.8893C22.2217 26.9643 22.5935 26.9491 22.945 26.8451C23.2964 26.7411 23.6166 26.5514 23.8768 26.2932L27.0184 23.1838L21.1459 19.3896L18.4554 21.5324C18.3524 21.6139 18.231 21.669 18.1018 21.6929C17.9727 21.7167 17.8396 21.7087 17.7143 21.6693C15.4802 20.8462 13.4557 19.5396 11.7854 17.8429C10.0577 16.2296 8.71673 14.247 7.86234 12.0429C7.82619 11.9095 7.82499 11.769 7.85885 11.635C7.89271 11.501 7.96049 11.3779 8.05567 11.2777L10.2307 8.6757L6.31567 2.93209Z" fill="white"/>
</svg>
