<svg width="27" height="27" viewBox="0 0 27 27" fill="none" xmlns="http://www.w3.org/2000/svg">
<rect x="0.5" y="0.5" width="26" height="26" rx="7.5" stroke="white"/>
<path d="M22.3948 8.84713C22.3522 8.74435 22.2801 8.65651 22.1876 8.59471C22.0951 8.5329 21.9864 8.49992 21.8751 8.49992H19.736C19.479 8.05264 19.1226 7.67048 18.6943 7.38302C18.266 7.09555 17.7773 6.91048 17.266 6.84214C16.7547 6.7738 16.2346 6.82401 15.7458 6.9889C15.2571 7.15378 14.8128 7.42891 14.4474 7.793C14.1279 8.10458 13.874 8.4769 13.7006 8.88806C13.5272 9.29922 13.4378 9.74091 13.4376 10.1871L13.4373 10.6175C10.5758 9.87193 8.23512 7.56434 8.21037 7.53959C8.13778 7.46701 8.04672 7.41566 7.94704 7.39113C7.84736 7.3666 7.74287 7.36981 7.64489 7.40042C7.5469 7.43103 7.45916 7.48787 7.39118 7.56478C7.32319 7.64169 7.27754 7.73574 7.25918 7.83673C6.64219 11.2304 7.66158 13.502 8.62535 14.8101C9.11026 15.4697 9.69718 16.0478 10.364 16.5226C9.29199 17.7355 7.63324 18.3726 7.61517 18.3794C7.53584 18.4091 7.46425 18.4564 7.40576 18.5177C7.34726 18.579 7.30337 18.6528 7.27737 18.7334C7.25136 18.814 7.2439 18.8995 7.25556 18.9834C7.26722 19.0674 7.29768 19.1476 7.34468 19.2181C7.39706 19.2968 7.60821 19.5734 8.1236 19.8311C8.76225 20.1505 9.60389 20.3124 10.6251 20.3124C15.5848 20.3124 19.7285 16.4946 20.152 11.5811L22.2729 9.46018C22.3515 9.38151 22.4051 9.28127 22.4268 9.17215C22.4485 9.06302 22.4374 8.94991 22.3948 8.84713V8.84713ZM19.2089 10.9332C19.1122 11.0299 19.054 11.1586 19.0453 11.2951C18.7634 15.7207 15.0648 19.1874 10.6251 19.1874C9.88247 19.1874 9.35625 19.089 8.99224 18.9709C9.80203 18.5313 10.9302 17.7751 11.6557 16.687C11.6996 16.6207 11.729 16.5458 11.742 16.4674C11.7549 16.3889 11.7512 16.3086 11.7309 16.2317C11.7106 16.1548 11.6743 16.083 11.6243 16.0212C11.5743 15.9593 11.5119 15.9087 11.4409 15.8727C11.4305 15.8674 10.3907 15.3294 9.49983 14.1C8.48656 12.7017 8.06053 11.0094 8.22837 9.05848C9.3379 9.96931 11.4649 11.4602 13.9067 11.8673C13.9872 11.8807 14.0697 11.8764 14.1484 11.8547C14.2271 11.8331 14.3002 11.7945 14.3625 11.7418C14.4248 11.689 14.4749 11.6233 14.5093 11.5493C14.5437 11.4752 14.5616 11.3946 14.5616 11.3129L14.5626 10.1881V10.1876C14.5685 9.58768 14.8114 9.01448 15.2383 8.59298C15.6652 8.17148 16.2415 7.93588 16.8414 7.93756C17.2743 7.94355 17.6963 8.07404 18.057 8.31343C18.4178 8.55282 18.7019 8.891 18.8757 9.28756C18.9194 9.38781 18.9915 9.47312 19.083 9.53304C19.1746 9.59296 19.2816 9.62489 19.391 9.62492H20.5171L19.2089 10.9332Z" fill="white"/>
</svg>
