<svg width="32" height="32" viewBox="0 0 32 32" fill="none" xmlns="http://www.w3.org/2000/svg">
<path d="M5.17196 23.8625C5.76145 22.4662 6.61692 21.1978 7.69071 20.1281C8.76123 19.0553 10.0293 18.2 11.425 17.6094C11.4375 17.6031 11.45 17.6 11.4625 17.5938C9.51571 16.1875 8.25008 13.8969 8.25008 11.3125C8.25008 7.03125 11.7188 3.5625 16 3.5625C20.2813 3.5625 23.75 7.03125 23.75 11.3125C23.75 13.8969 22.4844 16.1875 20.5375 17.5969C20.55 17.6031 20.5625 17.6062 20.575 17.6125C21.975 18.2031 23.2313 19.05 24.3094 20.1313C25.3822 21.2018 26.2375 22.4699 26.8282 23.8656C27.4084 25.232 27.7214 26.697 27.75 28.1812C27.7509 28.2146 27.745 28.2478 27.7328 28.2788C27.7206 28.3099 27.7024 28.3382 27.6791 28.3621C27.6558 28.386 27.6279 28.4049 27.5972 28.4179C27.5664 28.4308 27.5334 28.4375 27.5 28.4375H25.625C25.4875 28.4375 25.3782 28.3281 25.375 28.1938C25.3125 25.7812 24.3438 23.5219 22.6313 21.8094C20.8594 20.0375 18.5063 19.0625 16 19.0625C13.4938 19.0625 11.1407 20.0375 9.36883 21.8094C7.65633 23.5219 6.68758 25.7812 6.62508 28.1938C6.62196 28.3313 6.51258 28.4375 6.37508 28.4375H4.50008C4.46672 28.4375 4.43369 28.4308 4.40294 28.4179C4.3722 28.4049 4.34436 28.386 4.32106 28.3621C4.29776 28.3382 4.27948 28.3099 4.26729 28.2788C4.2551 28.2478 4.24925 28.2146 4.25008 28.1812C4.28133 26.6875 4.59071 25.2344 5.17196 23.8625ZM16 16.6875C17.4344 16.6875 18.7844 16.1281 19.8 15.1125C20.8157 14.0969 21.375 12.7469 21.375 11.3125C21.375 9.87813 20.8157 8.52812 19.8 7.5125C18.7844 6.49687 17.4344 5.9375 16 5.9375C14.5657 5.9375 13.2157 6.49687 12.2 7.5125C11.1844 8.52812 10.625 9.87813 10.625 11.3125C10.625 12.7469 11.1844 14.0969 12.2 15.1125C13.2157 16.1281 14.5657 16.6875 16 16.6875Z" fill="black"/>
</svg>
